<?xml version="1.0" encoding="UTF-8"?>
<svg width="256px" height="256px" viewBox="0 0 256 256" version="1.1" xmlns="http://www.w3.org/2000/svg" xmlns:xlink="http://www.w3.org/1999/xlink">
    <!-- Generator: Sketch 55.2 (78181) - https://sketchapp.com -->
    <title>Artboard</title>
    <desc>Created with Sketch.</desc>
    <g id="Artboard" stroke="none" stroke-width="1" fill="none" fill-rule="evenodd">
        <g id="Group-2">
            <rect id="Rectangle" x="0" y="0" width="256" height="256"></rect>
            <g id="Group" transform="translate(1.000000, 2.000000)">
                <circle id="Oval" fill="#FFC0C9" cx="135.5" cy="233.5" r="17.5"></circle>
                <circle id="Oval-Copy-10" fill="#FFC0C9" cx="84.5" cy="218.5" r="18.5"></circle>
                <circle id="Oval-Copy-11" fill="#FFC0C9" cx="39.5" cy="199.5" r="17.5"></circle>
                <circle id="Oval-Copy-12" fill="#FFC0C9" cx="34.5" cy="53.5" r="17.5"></circle>
                <circle id="Oval-Copy-14" fill="#FFC0C9" cx="130.5" cy="18.5" r="17.5"></circle>
                <circle id="Oval-Copy-15" fill="#FFC0C9" cx="179.5" cy="31.5" r="17.5"></circle>
                <circle id="Oval-Copy-16" fill="#FFC0C9" cx="222.5" cy="56.5" r="17.5"></circle>
                <circle id="Oval-Copy-13" fill="#FFC0C9" cx="80.5" cy="31.5" r="18.5"></circle>
                <circle id="Oval-Copy-8" fill="#FFC0C9" cx="216.5" cy="187.5" r="17.5"></circle>
                <circle id="Oval-Copy-9" fill="#FFC0C9" cx="183.5" cy="214.5" r="17.5"></circle>
                <circle id="Oval" fill="#AE91D9" cx="101" cy="10" r="10"></circle>
                <circle id="Oval-Copy" fill="#AE91D9" cx="150" cy="43" r="10"></circle>
                <circle id="Oval-Copy-17" fill="#97E8FF" cx="209" cy="25" r="10"></circle>
                <circle id="Oval-Copy-18" fill="#97E8FF" cx="244" cy="74" r="10"></circle>
                <circle id="Oval-Copy-19" fill="#97E8FF" cx="243" cy="173" r="10"></circle>
                <circle id="Oval-Copy-20" fill="#97E8FF" cx="213" cy="216" r="10"></circle>
                <circle id="Oval-Copy-21" fill="#97E8FF" cx="53" cy="225" r="10"></circle>
                <circle id="Oval-Copy-22" fill="#97E8FF" cx="20" cy="177" r="10"></circle>
                <circle id="Oval-Copy-23" fill="#97E8FF" cx="10" cy="68" r="10"></circle>
                <circle id="Oval-Copy-24" fill="#97E8FF" cx="48" cy="27" r="10"></circle>
                <circle id="Oval-Copy-3" fill="#AE91D9" cx="159" cy="10" r="10"></circle>
                <circle id="Oval-Copy-2" fill="#AE91D9" cx="109" cy="40" r="10"></circle>
                <circle id="Oval-Copy-4" fill="#AE91D9" cx="113" cy="213" r="10"></circle>
                <circle id="Oval-Copy-5" fill="#AE91D9" cx="103" cy="241" r="10"></circle>
                <circle id="Oval-Copy-6" fill="#AE91D9" cx="165" cy="242" r="10"></circle>
                <circle id="Oval-Copy-7" fill="#AE91D9" cx="153" cy="211" r="10"></circle>
                <text id="PreOv" font-family="Montserrat-Medium, Montserrat" font-size="74" font-weight="400" letter-spacing="-0.162667" fill="#FFC0C9">
                    <tspan x="11.2626675" y="151">PreOv</tspan>
                </text>
            </g>
        </g>
    </g>
</svg>